<?xml version="1.0" encoding="utf-8"?>
<!-- Generator: Adobe Illustrator 21.0.0, SVG Export Plug-In . SVG Version: 6.00 Build 0)  -->
<svg version="1.1" id="Шар_1" xmlns="http://www.w3.org/2000/svg" xmlns:xlink="http://www.w3.org/1999/xlink" x="0px" y="0px"
	 viewBox="0 0 2834.6 11338.6" style="enable-background:new 0 0 2834.6 11338.6;" xml:space="preserve">
<style type="text/css">
	.st0{fill:none;stroke:#BABABA;stroke-width:2;stroke-miterlimit:10;}
	.st1{fill:none;stroke:#000000;stroke-miterlimit:10;}
</style>
<path class="st0" d="M2556.3,11338.6c-7.1-235-100.8-468.5-270.1-632.4c-114.6-111-257.9-191.3-361.1-313
	c-141.2-166.5-191.8-401.8-146-615.3c56.9-265.6,244.8-480,408.7-696.7c185.4-245.1,348.6-551.9,350.5-866.7
	c0.6-99.1-16.5-198.5-51.9-291.2c-46.9-122.5-137.1-229.9-225.3-325.4c-131.2-142-239.6-301.3-305.3-470.9
	c0,0-260.5-681.1,118.1-1346.3c226.5-398.1,328.1-499.9,389.1-638c0,0,0,0,0,0c0,0,0,0,0,0c115.7-217,117.7-421.5,93.6-566.2
	c-8.1-64.6-26.9-128.2-53.7-189.3c-0.1-0.1-0.1-0.3-0.2-0.4c-3.2-7.3-6.6-14.6-10-21.9c0-0.1-0.1-0.1-0.1-0.2c0,0,0,0,0-0.1
	c-50.2-105.2-123.7-202-206.2-281.9c-114.6-111-257.9-191.3-361.1-313c-141.2-166.5-191.8-401.8-146-615.3
	c56.9-265.6,244.8-480,408.7-696.7c185.4-245.2,348.6-551.9,350.5-866.7c0.6-99.1-16.5-198.5-51.9-291.1
	c-46.9-122.5-137.1-229.9-225.3-325.4C2005.5,698,1836.6,356.1,1900.9,0"/>
<path class="st0" d="M1892.1,6869.5C1892.1,6869.5,1892.1,6869.5,1892.1,6869.5"/>
<line class="st1" x1="1463.9" y1="2270" x2="1463.9" y2="2270"/>
<path class="st0" d="M2286.2,4082.7"/>
<path class="st0" d="M2503,4387.8c-0.1-0.4-0.3-0.7-0.4-1c-5.5-13-9.3-20.5-10-21.9c-0.1-0.2-0.1-0.2-0.1-0.2"/>
</svg>
