<?xml version="1.0" encoding="utf-8"?>
<!-- Generator: Adobe Illustrator 21.0.0, SVG Export Plug-In . SVG Version: 6.00 Build 0)  -->
<svg version="1.1" id="Шар_1" xmlns="http://www.w3.org/2000/svg" xmlns:xlink="http://www.w3.org/1999/xlink" x="0px" y="0px"
	 viewBox="0 0 2834.6 16352" style="enable-background:new 0 0 2834.6 16352;" xml:space="preserve">
<style type="text/css">
	.st0{fill:none;stroke:#BABABA;stroke-width:2;stroke-miterlimit:10;}
	.st1{fill:none;stroke:#000000;stroke-miterlimit:10;}
</style>
<path class="st0" d="M2618.3,22107.7c-13.9-458.3-196.6-913.5-526.7-1233.1c-223.4-216.4-502.9-372.9-704-610.2
	c-275.3-324.7-373.9-783.5-284.7-1199.7c111-517.9,477.3-935.9,796.8-1358.4c361.5-478,679.6-1076.1,683.3-1689.9
	c1.2-193.2-32.1-387.1-101.3-567.7c-91.5-238.9-267.4-448.3-439.3-634.4c-255.9-276.9-467.2-587.4-595.2-918.1
	c0,0-508-1328,230.2-2625.1c441.7-776.1,639.7-974.8,758.6-1244c0,0,0,0,0-0.1c0,0,0,0,0-0.1c225.6-423.2,229.4-821.8,182.5-1104.1
	c-15.7-125.9-52.4-250-104.8-369c-0.1-0.3-0.2-0.5-0.4-0.8c-6.3-14.3-12.8-28.5-19.6-42.7c-0.1-0.1-0.1-0.2-0.2-0.3
	c0,0,0-0.1-0.1-0.2c-97.8-205.2-241.2-393.9-402-549.6c-223.4-216.4-502.9-372.9-704-610.2c-275.3-324.7-373.9-783.5-284.7-1199.7
	c111-517.9,477.3-935.9,796.8-1358.4c361.5-478,679.6-1076.1,683.3-1690c1.2-193.2-32.1-387.1-101.3-567.7
	c-91.5-238.9-267.4-448.3-439.3-634.4C1544.4,1360.9,1215,694.4,1340.3,0"/>
<path class="st0" d="M1892.1,9392.5C1892.1,9392.5,1892.1,9392.5,1892.1,9392.5"/>
<line class="st1" x1="1463.9" y1="4793" x2="1463.9" y2="4793"/>
<path class="st0" d="M2286.2,6605.7"/>
<path class="st0" d="M2503,6910.8c-0.1-0.4-0.3-0.7-0.4-1c-5.5-13-9.3-20.5-10-21.9c-0.1-0.2-0.1-0.2-0.1-0.2"/>
</svg>
