<?xml version="1.0" encoding="utf-8"?>
<!-- Generator: Adobe Illustrator 21.0.0, SVG Export Plug-In . SVG Version: 6.00 Build 0)  -->
<svg version="1.1" id="Шар_1" xmlns="http://www.w3.org/2000/svg" xmlns:xlink="http://www.w3.org/1999/xlink" x="0px" y="0px"
	 viewBox="0 0 142.2 25.1" style="enable-background:new 0 0 142.2 25.1;" xml:space="preserve">
<style type="text/css">
	.st0{fill:#F6F6F1;}
</style>
<g>
	<path class="st0" d="M7.7,19.6H5.4l-5.5-12h3.7l2.2,5.1c0.3,0.7,0.7,1.8,0.9,2.7c0.2-0.9,0.6-2,0.9-2.8l2.1-5.1h3.2L7.7,19.6z"/>
	<path class="st0" d="M26,19.5c-1.8,4.3-2.9,5.3-4.6,5.3c-1.1,0-1.9-0.4-2.6-0.9l1-2.3c0.3,0.2,0.8,0.4,1.3,0.4
		c0.8,0,1.3-0.6,1.8-1.9l0.3-0.6l-5.5-12h3.7l2.8,6.6c0.2,0.6,0.4,1.1,0.6,1.7c0.1-0.6,0.2-1.1,0.4-1.8l2.2-6.5h3.5L26,19.5z"/>
	<path class="st0" d="M36.8,7.5h3.1v1.2c0.7-0.8,2-1.4,3.4-1.4c2.9,0,4.9,1.4,4.9,5.2v7h-3.1V13c0-1.9-1-2.8-2.7-2.8
		c-1,0-1.9,0.4-2.6,1.1v8.2h-3.1V7.5z"/>
	<path class="st0" d="M57.7,1.4c0.9,0,1.8,0.7,1.8,1.8c0,1.2-0.9,1.9-1.8,1.9c-1,0-1.9-0.7-1.9-1.9C55.8,2.1,56.6,1.4,57.7,1.4z
		 M56.1,7.5h3.1v12h-3.1V7.5z"/>
	<path class="st0" d="M67.4,8.4c1-0.6,2.7-1.1,4.2-1.1c3.5,0,4.8,1.8,4.8,5v7.3h-2.7v-1.4c-0.6,0.9-1.9,1.5-3.5,1.5
		c-2.2,0-3.8-1.4-3.8-3.7c0-2.6,1.9-3.9,4.4-3.9c1.1,0,2.1,0.3,2.7,0.8c0.1-2-0.5-3.1-2.2-3.1c-1.4,0-2.3,0.4-3.1,0.8L67.4,8.4z
		 M73.6,16v-1.2c-0.5-0.4-1.2-0.6-2.1-0.6c-1,0-1.9,0.5-1.9,1.5c0,0.9,0.7,1.4,1.7,1.4C72.6,17.1,73.2,16.6,73.6,16z"/>
	<path class="st0" d="M83.9,7.5h3.1v1.2c0.6-0.8,1.3-1.4,2.7-1.4c1,0,1.5,0.2,1.9,0.5l-1.1,2.9c-0.6-0.3-0.9-0.5-1.5-0.5
		c-1.1,0-1.6,0.6-2,1.3v8.1h-3.1V7.5z"/>
	<path class="st0" d="M97.2,10.9c0-2.3,1.9-3.7,4.4-3.7c2.3,0,3.8,0.8,4.6,1.5L105,11c-0.7-0.6-2-1.1-3.3-1.1c-0.9,0-1.5,0.5-1.5,1
		c0,2,6.5,0.9,6.5,5.1c0,2.4-1.9,3.8-4.9,3.8c-2.2,0-4.5-1.2-5-2.1l1.5-2c0.7,0.8,2.5,1.5,3.7,1.5c0.9,0,1.6-0.4,1.6-1.1
		C103.7,14.2,97.2,15.3,97.2,10.9z"/>
	<path class="st0" d="M113.7,0.9h3.1v18.7h-3.1V0.9z M120.4,13l5,6.5h-3.9l-4.7-6.3l4.3-5.7h3.9L120.4,13z"/>
	<path class="st0" d="M131.8,8.4c1-0.6,2.7-1.1,4.2-1.1c3.5,0,4.8,1.8,4.8,5v7.3h-2.7v-1.4c-0.6,0.9-1.9,1.5-3.5,1.5
		c-2.2,0-3.8-1.4-3.8-3.7c0-2.6,1.9-3.9,4.4-3.9c1.1,0,2.1,0.3,2.7,0.8c0.1-2-0.5-3.1-2.2-3.1c-1.4,0-2.3,0.4-3.1,0.8L131.8,8.4z
		 M138,16v-1.2c-0.5-0.4-1.2-0.6-2.1-0.6c-1,0-1.9,0.5-1.9,1.5c0,0.9,0.7,1.4,1.7,1.4C136.9,17.1,137.6,16.6,138,16z"/>
</g>
</svg>
