<svg id="Шар_1" data-name="Шар 1" xmlns="http://www.w3.org/2000/svg" viewBox="0 0 533.47 337.99"><defs><style>.cls-1{fill:none;stroke:#000;stroke-miterlimit:10;}</style></defs><title>photo4</title><path class="cls-1" d="M2,171.9a298.11,298.11,0,0,1,6.14-59.47A176.81,176.81,0,0,1,28.71,57.69,117.43,117.43,0,0,1,66.94,17.8Q90.77,2.47,126.18,2.46q33.51,0,57.11,13.92a113.26,113.26,0,0,1,38.47,37.29Q236.62,77,243.23,107.48a301,301,0,0,1,6.61,64,300.8,300.8,0,0,1-6.14,59.94,174.17,174.17,0,0,1-20.53,54.51,112.54,112.54,0,0,1-38,38.94q-23.61,14.63-59,14.63-34.93,0-58.76-14.16a109.09,109.09,0,0,1-38.23-38q-14.4-23.83-20.77-54A296.42,296.42,0,0,1,2,171.9Zm146.31,0q0-41.53-.24-67.73t-2.36-41.3q-2.12-15.1-6.61-20.77t-13-5.66q-8,0-12.51,5.66t-6.84,20.53q-2.37,14.87-2.83,41.3t-.47,68q0,42,.24,68.44t2.36,41.3q2.12,14.87,6.84,20.06t13.21,5.19q8.5,0,13-5.19t6.61-20.06q2.12-14.87,2.36-41.3T148.36,171.9Z" transform="translate(-1.55 -1.96)"/><path class="cls-1" d="M511.31,198.81q5.66,0,11.56-.47t11.56-.94q-1,9.45-1.89,18.41a165.66,165.66,0,0,0-.94,17.46q0,9,.94,18.64t1.89,16.76q-5.2-.46-9.68-.71t-9.67-.24l-26.9.47q0,23.61.47,38.47t1.42,30a186.59,186.59,0,0,0-23.83-3.3q-12.51-.94-24.78-.94a236.06,236.06,0,0,0-23.83,1.18q-11.57,1.18-23.36,3.07.46-7.54.94-17t.71-18.64q.23-9.2.47-17.7t.24-14.63a27,27,0,0,0-5.19-.47H375.85q-25.49,0-49.56.47t-49.56,1.42a258.56,258.56,0,0,0,2.83-36.34,122.2,122.2,0,0,0-.94-15.1q-1-7.54-1.89-15.58,7.54-9,16.28-20.77t17.46-24.54Q319.21,145,327.71,132t15.58-24.31L374,59.57q8-12.74,16-25.72T405.58,7.66q10.85,1.89,20.53,3.07a182.26,182.26,0,0,0,21.95,1.18A165.9,165.9,0,0,0,470,10.49q10.62-1.42,21-2.83-1,26-2.12,53.81t-1.18,55.22l.47,82.6Zm-187.85,2.83H398V88.84Z" transform="translate(-1.55 -1.96)"/></svg>