<?xml version="1.0" encoding="utf-8"?>
<!-- Generator: Adobe Illustrator 21.0.0, SVG Export Plug-In . SVG Version: 6.00 Build 0)  -->
<svg version="1.1" id="Шар_1" xmlns="http://www.w3.org/2000/svg" xmlns:xlink="http://www.w3.org/1999/xlink" x="0px" y="0px"
	 viewBox="0 0 520 340.9" style="enable-background:new 0 0 520 340.9;" xml:space="preserve">
<style type="text/css">
	.st0{fill:none;stroke:#000000;stroke-miterlimit:10;}
</style>
<g>
	<g>
		<path class="st0" d="M1.4,171.6c0-19.5,2-39.3,6.1-59.5C11.6,92,18.4,73.8,28,57.4C37.6,41,50.4,27.7,66.3,17.5
			C82.2,7.3,101.9,2.2,125.5,2.2c22.3,0,41.4,4.6,57.1,13.9c15.7,9.3,28.6,21.7,38.5,37.3c9.9,15.6,17.1,33.5,21.5,53.8
			c4.4,20.3,6.6,41.6,6.6,64c0,19.8-2,39.8-6.1,59.9c-4.1,20.1-10.9,38.3-20.5,54.5c-9.6,16.2-22.3,29.2-38,38.9
			c-15.7,9.8-35.4,14.6-59,14.6c-23.3,0-42.9-4.7-58.8-14.2c-15.9-9.4-28.6-22.1-38.2-38c-9.6-15.9-16.5-33.9-20.8-54
			C3.5,212.8,1.4,192.4,1.4,171.6z M147.7,171.6c0-27.7-0.1-50.3-0.2-67.7c-0.2-17.5-0.9-31.2-2.4-41.3c-1.4-10.1-3.6-17-6.6-20.8
			c-3-3.8-7.3-5.7-13-5.7c-5.4,0-9.5,1.9-12.5,5.7c-3,3.8-5.3,10.6-6.8,20.5c-1.6,9.9-2.5,23.7-2.8,41.3c-0.3,17.6-0.5,40.3-0.5,68
			c0,28,0.1,50.8,0.2,68.4c0.2,17.6,0.9,31.4,2.4,41.3s3.7,16.6,6.8,20.1c3.1,3.5,7.6,5.2,13.2,5.2c5.7,0,10-1.7,13-5.2
			c3-3.5,5.2-10.1,6.6-20.1s2.2-23.7,2.4-41.3C147.6,222.4,147.7,199.6,147.7,171.6z"/>
		<path class="st0" d="M518.2,91.4c0,12.9-2,24.3-5.9,34.2c-3.9,9.9-8.8,18.9-14.6,26.9c-5.8,8-12.4,15.2-19.6,21.5
			c-7.2,6.3-14.2,12.3-20.8,17.9c-9.4,7.9-19.1,15.1-29,21.7c-9.9,6.6-19.9,13.4-30,20.3l-32.6,21.7c10.4,0,22.2-0.1,35.4-0.2
			c13.2-0.2,26.7-0.5,40.6-0.9c13.8-0.5,27.5-1,41.1-1.7c13.5-0.6,25.8-1.4,36.8-2.4c-1.3,7.2-2.1,14-2.6,20.3
			c-0.5,6.3-0.7,12.7-0.7,19.4c0,7.2,0.3,15,0.9,23.4c0.6,8.3,1.4,16,2.4,22.9c-8.2-0.9-17.2-1.7-27.1-2.4c-9.9-0.6-20-1-30.2-1.2
			c-10.2-0.2-20.4-0.3-30.4-0.5c-10.1-0.2-19.2-0.2-27.4-0.2c-40.6,0-81.5,1.4-122.7,4.2c1.3-6.3,1.9-14.3,1.9-24.1
			c-0.3-4.1-0.6-8-0.7-11.8c-0.2-3.8-0.6-7.7-1.2-11.8c7.6-5.7,16.4-13.1,26.4-22.2c10.1-9.1,20.2-18.7,30.4-28.8
			c10.2-10.1,19.7-20.1,28.6-30.2c8.8-10.1,15.7-18.9,20.8-26.4c5.3-8.2,9.7-16.6,13-25.3c3.3-8.7,5.9-17,7.8-25
			c1.9-8,3.1-15.6,3.8-22.7c0.6-7.1,0.9-13.1,0.9-18.2c0-5.7-0.5-11.6-1.4-17.7c-0.9-6.1-2.8-11.7-5.4-16.8
			c-2.7-5-6.2-9.2-10.6-12.5c-4.4-3.3-10.1-5-17-5c-9.4,0-17,2.8-22.7,8.5c-5.7,5.7-9.9,12.7-12.7,21c-2.8,8.3-4.7,17-5.7,26
			c-0.9,9-1.6,16.8-1.9,23.4l-8,3.3c-5.4-6.9-13-15.3-22.9-25c-9.9-9.7-20.7-18.9-32.3-27.4c8.5-12.6,17.1-23,25.7-31.4
			c8.7-8.3,17.9-15,27.6-20.1c9.7-5,20.3-8.6,31.6-10.6c11.3-2,24.1-3.1,38.2-3.1c17.6,0,33.9,2.2,48.9,6.6
			c14.9,4.4,27.8,10.5,38.7,18.4c10.9,7.9,19.4,17.2,25.5,28.1C515.1,66.6,518.2,78.5,518.2,91.4z"/>
	</g>
</g>
</svg>
