<svg id="Шар_1" data-name="Шар 1" xmlns="http://www.w3.org/2000/svg" viewBox="0 0 353.64 258.12"><defs><style>.cls-1{fill:none;stroke:#000;stroke-miterlimit:10;}</style></defs><title>photo01</title><path class="cls-1" d="M8.58,137.36A224.51,224.51,0,0,1,13.2,92.57,133.15,133.15,0,0,1,28.67,51.33a88.44,88.44,0,0,1,28.79-30Q75.41,9.75,102.07,9.74q25.24,0,43,10.49a85.32,85.32,0,0,1,29,28.08,123.7,123.7,0,0,1,16.17,40.52,226.7,226.7,0,0,1,5,48.17,226.57,226.57,0,0,1-4.62,45.15,131.19,131.19,0,0,1-15.46,41.06,84.76,84.76,0,0,1-28.62,29.33q-17.78,11-44.43,11-26.31,0-44.26-10.66A82.16,82.16,0,0,1,29,224.27a129.82,129.82,0,0,1-15.64-40.7A223.27,223.27,0,0,1,8.58,137.36Zm110.2,0q0-31.28-.18-51t-1.78-31.1q-1.6-11.37-5-15.64t-9.78-4.27a11.33,11.33,0,0,0-9.42,4.27q-3.38,4.27-5.15,15.46t-2.13,31.1Q85,106.08,85,137.36q0,31.64.18,51.54T87,220q1.6,11.2,5.15,15.11t10,3.91q6.4,0,9.78-3.91t5-15.11q1.6-11.2,1.78-31.1T118.78,137.36Z" transform="translate(-8.08 -5.94)"/><path class="cls-1" d="M360,41.91,358.9,72.84q-.53,15.46-.71,30.22T358,130.25q0,21,.18,36.44t.53,29.5q.35,14,.89,29.33t1.24,35.9a248.42,248.42,0,0,0-40.17-3.2q-9.6,0-19,.89T283,261.42q.71-8.53,1.24-23.82t1.07-33.24q.53-17.95.71-36.44t.18-33.06q0-29.5-1.07-58.65-10.31,5.33-20.44,10.31a215.78,215.78,0,0,0-19.73,11q-5.33-7.11-10.49-13.86t-11.2-13.51q9.24-3.2,18.31-7.11t18.31-7.82q8.17-3.55,21-9.78T307,32.31q13.33-6.93,25.59-13.86a195.12,195.12,0,0,0,19-11.91l9.6,6Q360.5,26.45,360,41.91Z" transform="translate(-8.08 -5.94)"/></svg>