<svg id="Шар_1" data-name="Шар 1" xmlns="http://www.w3.org/2000/svg" viewBox="0 0 519.23 337.99"><defs><style>.cls-1{fill:none;stroke:#000;stroke-miterlimit:10;}</style></defs><title>photo3</title><path class="cls-1" d="M1.15,171.06A298.11,298.11,0,0,1,7.28,111.6,176.81,176.81,0,0,1,27.82,56.85,117.43,117.43,0,0,1,66,17Q89.87,1.63,125.28,1.62q33.51,0,57.11,13.92a113.26,113.26,0,0,1,38.47,37.29q14.87,23.36,21.48,53.81a301,301,0,0,1,6.61,64,300.8,300.8,0,0,1-6.14,59.94A174.17,174.17,0,0,1,222.27,285a112.54,112.54,0,0,1-38,38.94q-23.61,14.63-59,14.63-34.93,0-58.76-14.16a109.09,109.09,0,0,1-38.23-38q-14.4-23.83-20.77-54A296.42,296.42,0,0,1,1.15,171.06Zm146.31,0q0-41.53-.24-67.73T144.87,62q-2.12-15.1-6.61-20.77t-13-5.66q-8,0-12.51,5.66T105.93,61.8q-2.37,14.87-2.83,41.3t-.47,68q0,42,.24,68.44t2.36,41.3q2.12,14.87,6.84,20.06t13.21,5.19q8.5,0,13-5.19t6.61-20.06q2.12-14.87,2.36-41.3T147.46,171.06Z" transform="translate(-0.65 -1.12)"/><path class="cls-1" d="M331.53,263.1a71.73,71.73,0,0,0,8,21.71,51.37,51.37,0,0,0,14.4,16.28q8.73,6.37,21.47,6.37,14.16,0,22.89-5.9A41.45,41.45,0,0,0,412,286.23a64.46,64.46,0,0,0,6.61-21,165.33,165.33,0,0,0,1.65-23.36,167.71,167.71,0,0,0-1.42-21.71,60.47,60.47,0,0,0-5.66-19.35,36.75,36.75,0,0,0-12-13.92q-7.79-5.42-20.53-5.43-5.2,0-10.86.47t-10.86,1.42a96.35,96.35,0,0,0,1.89-18.88q0-3.77-.24-7.32c-.16-2.36-.4-4.79-.71-7.32q4.25.48,8.73.94a78.49,78.49,0,0,0,8.26.47q12.27,0,19.82-5a35.28,35.28,0,0,0,11.8-12.74,52.42,52.42,0,0,0,5.66-18.17,153.39,153.39,0,0,0,1.42-20.77,135.51,135.51,0,0,0-1.89-23.13,63.53,63.53,0,0,0-6.14-18.88,34.28,34.28,0,0,0-11.33-12.74q-7.08-4.71-17.46-4.72a27,27,0,0,0-16.28,5,43.35,43.35,0,0,0-11.33,12,59.2,59.2,0,0,0-6.84,15.1A109.78,109.78,0,0,0,341,81.39l-2.83,23.13-7.08.94a115.43,115.43,0,0,0-10.15-12.74Q314.54,85.64,307.46,79T293.53,66.52q-6.85-5.9-11.56-9.68,6.13-7.54,14.4-16.76a97.4,97.4,0,0,1,20.53-17A124.23,124.23,0,0,1,346.63,9.88q17.46-5.42,42-5.43A205,205,0,0,1,428.76,8.7,136.57,136.57,0,0,1,467.7,22.63a90.55,90.55,0,0,1,29.5,25.49Q509,63.93,509,87.52a65,65,0,0,1-5.9,28.08,72.25,72.25,0,0,1-15.58,21.71,86.64,86.64,0,0,1-21.71,15.1,96.29,96.29,0,0,1-24.31,8.26,108.72,108.72,0,0,1,28.55,7.79,96.59,96.59,0,0,1,25,15.34,70.7,70.7,0,0,1,17.7,22.89q6.6,13.45,6.61,30.92,0,27.38-12.27,46.73A101.13,101.13,0,0,1,475.48,316a128.83,128.83,0,0,1-43.19,17.23,232.54,232.54,0,0,1-47.43,5q-17,0-31.39-1.42a108.44,108.44,0,0,1-27.61-6.37,121,121,0,0,1-26-13.69,188.65,188.65,0,0,1-26.43-22.42q13.68-14.62,24.78-26.67A196,196,0,0,0,319.73,239l9.44,1.89A113,113,0,0,0,331.53,263.1Z" transform="translate(-0.65 -1.12)"/></svg>